<?xml version="1.0" encoding="UTF-8"?>
<svg id="Layer_1" xmlns="http://www.w3.org/2000/svg" baseProfile="tiny" version="1.2" viewBox="0 0 16 16">
  <!-- Generator: Adobe Illustrator 29.5.0, SVG Export Plug-In . SVG Version: 2.1.0 Build 137)  -->
  <path d="M2.31,1.56c-.15.12-.86.7-1.46,1.81C-.12,5.16-.03,6.89.04,7.92c.13,1.9.22,3.63,1.53,4.97,2.55,2.61,6.86,1.65,7.05,1.6v1.5c.47-.11,1.13-.3,1.88-.62,1.09-.46,3.1-1.3,4.39-3.27.28-.42.9-1.39,1.06-2.7.05-.43.05-.87.04-1.41,0-.88-.08-1.58-.12-1.98-.13-1.12-.2-1.68-.46-2.29-.09-.21-.39-.86-1.01-1.54-.96-1.05-2.07-1.48-2.63-1.68C10.48.02,9.41.01,8.25,0c-.84,0-2.05-.01-3.53.43-.77.23-1.59.48-2.41,1.14Z" fill="#0276ff"/>
  <path d="M5.78,7.29s3.82,4.89,5.24,3.84-.07-2.5-.07-2.5l-2.45-1.8-2.58-2.05-.14,2.51Z" fill="#03a2fe"/>
  <path d="M3.66,4.26c-.09,4.46.34,5.59-1.7,6.7,0,0-.27.13.17.17s2.42.16,2.71,0,.98.05,1.1-2.63v-2.56s-.03-.84.96.25,1.94,2.61,2.21,2.9,1.4,1.78,1.48,1.88,1.3,1.13,2.17-.63c0,0,.17-.53.17-1.65s-.01-5.92-.01-5.92l-2.41.03.06,4.58s-.11.22-.54-.26-2.99-3.57-3.22-3.69-1.12-1.02-2.14-.51-1.03,1.33-1.03,1.33Z" fill="#f7fbfe"/>
</svg>